<svg width="20" height="20" viewBox="0 0 20 20" fill="none" xmlns="http://www.w3.org/2000/svg">
<path d="M14.034 0.109863H5.94254C2.72092 0.109863 0.109375 2.72141 0.109375 5.94303V14.0345C0.109375 17.2561 2.72092 19.8677 5.94254 19.8677H14.034C17.2556 19.8677 19.8672 17.2561 19.8672 14.0345V5.94303C19.8672 2.72141 17.2556 0.109863 14.034 0.109863ZM9.98828 14.6995C7.38662 14.6995 5.27758 12.5904 5.27758 9.98877C5.27758 7.3871 7.38662 5.27807 9.98828 5.27807C12.5899 5.27807 14.699 7.3871 14.699 9.98877C14.699 12.5904 12.5899 14.6995 9.98828 14.6995ZM15.2673 5.74347C14.6996 5.74347 14.2393 5.28312 14.2393 4.71541C14.2393 4.1477 14.6996 3.68734 15.2673 3.68734C15.8351 3.68734 16.2954 4.1477 16.2954 4.71541C16.2954 5.28312 15.8353 5.74347 15.2673 5.74347Z" fill="#46403C"/>
<path d="M14.034 0.987988C16.7663 0.987988 18.9891 3.21074 18.9891 5.94303V14.0345C18.9891 16.7668 16.7663 18.9896 14.034 18.9896H5.94254C3.21025 18.9896 0.9875 16.7668 0.9875 14.0345V5.94303C0.9875 3.21074 3.21025 0.987988 5.94254 0.987988H14.034ZM13.7293 5.84029C12.7381 4.94548 11.4258 4.39994 9.98828 4.39994C6.9065 4.39994 4.39945 6.90699 4.39945 9.98877C4.39945 13.0705 6.9065 15.5776 9.98828 15.5776C13.0701 15.5776 15.5771 13.0705 15.5771 9.98877C15.5771 8.55369 15.0333 7.24287 14.1409 6.25213C14.4566 6.48417 14.8463 6.62138 15.2673 6.62138C16.3185 6.62138 17.1735 5.76631 17.1735 4.71519C17.1735 3.66407 16.3185 2.809 15.2673 2.809C14.2162 2.809 13.3612 3.66407 13.3612 4.71519C13.3614 5.13559 13.4981 5.5246 13.7293 5.84029ZM14.034 0.109863H5.94254C2.72092 0.109863 0.109375 2.72141 0.109375 5.94303V14.0345C0.109375 17.2561 2.72092 19.8677 5.94254 19.8677H14.034C17.2556 19.8677 19.8672 17.2561 19.8672 14.0345V5.94303C19.8672 2.72141 17.2556 0.109863 14.034 0.109863ZM15.2673 5.74347C14.6996 5.74347 14.2393 5.28312 14.2393 4.71541C14.2393 4.1477 14.6996 3.68734 15.2673 3.68734C15.8351 3.68734 16.2954 4.1477 16.2954 4.71541C16.2954 5.28312 15.8353 5.74347 15.2673 5.74347ZM9.98828 14.6995C7.38662 14.6995 5.27758 12.5904 5.27758 9.98877C5.27758 7.3871 7.38662 5.27807 9.98828 5.27807C12.5899 5.27807 14.699 7.3871 14.699 9.98877C14.699 12.5904 12.5899 14.6995 9.98828 14.6995Z" fill="#46403C"/>
</svg>
