<svg width="20" height="20" viewBox="0 0 20 20" fill="none" xmlns="http://www.w3.org/2000/svg">
<path fill-rule="evenodd" clip-rule="evenodd" d="M15 1.3H5C2.95655 1.3 1.3 2.95655 1.3 5V15C1.3 17.0435 2.95655 18.7 5 18.7H15C17.0435 18.7 18.7 17.0435 18.7 15V5C18.7 2.95655 17.0435 1.3 15 1.3ZM5 0C2.23858 0 0 2.23858 0 5V15C0 17.7614 2.23858 20 5 20H15C17.7614 20 20 17.7614 20 15V5C20 2.23858 17.7614 0 15 0H5ZM10 13.7C12.0435 13.7 13.7 12.0435 13.7 10C13.7 7.95655 12.0435 6.3 10 6.3C7.95655 6.3 6.3 7.95655 6.3 10C6.3 12.0435 7.95655 13.7 10 13.7ZM10 15C12.7614 15 15 12.7614 15 10C15 7.23858 12.7614 5 10 5C7.23858 5 5 7.23858 5 10C5 12.7614 7.23858 15 10 15ZM16 5C16.5523 5 17 4.55228 17 4C17 3.44772 16.5523 3 16 3C15.4477 3 15 3.44772 15 4C15 4.55228 15.4477 5 16 5Z" fill="#46403C"/>
</svg>
