<svg width="16" height="16" viewBox="0 0 16 16" fill="none" xmlns="http://www.w3.org/2000/svg">
<path d="M0.635098 2.86253L0.673909 2.82372L0.703376 2.77741L1.73324 1.15905C2.30459 0.261211 3.62327 0.285289 4.16147 1.20339L5.38477 3.29019C5.53677 3.54948 5.47304 3.88127 5.23579 4.06579L4.33239 4.76844L4.00885 5.02008L4.19213 5.38669C4.80248 6.60758 5.73373 7.89124 6.92125 9.07875C8.10876 10.2663 9.39242 11.1975 10.6133 11.8079L10.9799 11.9911L11.2316 11.6676L11.9342 10.7642C12.1187 10.527 12.4505 10.4632 12.7098 10.6152L14.7966 11.8385C15.7147 12.3767 15.7388 13.6954 14.8409 14.2668L13.2226 15.2966L13.1763 15.3261L13.1375 15.3649C13.0439 15.4585 12.8143 15.5551 12.3043 15.4634C11.8119 15.375 11.1725 15.1278 10.4224 14.7186C8.92815 13.9036 7.09713 12.5026 5.29727 10.7027C3.4974 8.90287 2.09639 7.07185 1.28137 5.57764C0.872225 4.82754 0.625032 4.18809 0.536561 3.69572C0.444921 3.18571 0.541526 2.9561 0.635098 2.86253Z" stroke="white"/>
</svg>
