<svg width="20" height="18" viewBox="0 0 20 18" fill="none" xmlns="http://www.w3.org/2000/svg">
<path fill-rule="evenodd" clip-rule="evenodd" d="M1.03182 7.56088L18.5333 0.81249C19.3326 0.449605 20.104 1.00458 19.7989 2.22825L16.8183 16.2734C16.6102 17.2712 16.0071 17.51 15.1716 17.049L10.6315 13.6946L8.44912 15.8166C8.44225 15.8233 8.43542 15.8299 8.42862 15.8365C8.18451 16.0742 7.98261 16.2708 7.5407 16.2708C7.07947 16.2708 7.04098 16.1343 6.94833 15.8057C6.92271 15.7149 6.89295 15.6093 6.84896 15.4879L5.30456 10.4051L0.814045 9.00342C-0.155624 8.70662 -0.162869 8.04012 1.03182 7.56088ZM6.08008 10.045L7.56126 14.9195L9.05604 11.5767L17.4814 3.28125L6.08008 10.045Z" fill="#46403C"/>
</svg>
