<svg width="60" height="60" fill="none" xmlns="http://www.w3.org/2000/svg"><path fill-rule="evenodd" clip-rule="evenodd" d="M12 0h31.952c.063 0 .123.025.167.07l.165.165h.007l8.427 8.427v.007l.199.198a.283.283 0 01.083.2V55a5 5 0 01-5 5H12a5 5 0 01-5-5V5a5 5 0 015-5zm40 10.605a3 3 0 00-.879-2.12l-6.605-6.606A3 3 0 0042.395 1H12a4 4 0 00-4 4v50a4 4 0 004 4h36a4 4 0 004-4V10.605z" fill="#46403C"/><path fill-rule="evenodd" clip-rule="evenodd" d="M52 11h-9a1 1 0 01-1-1V1h-1v9a2 2 0 002 2h9v-1z" fill="#46403C"/><path d="M14 19l.022.017a4 4 0 004.19.377v0a4 4 0 013.577 0L22 19.5a4.47 4.47 0 004 0v0a4.472 4.472 0 014 0v0a4.47 4.47 0 004 0v0a4.472 4.472 0 014 0l.211.106a4 4 0 003.578 0v0a4 4 0 014.189.377L46 20m-32 4.5l.022.017a4 4 0 004.19.377v0a4 4 0 013.577 0L22 25a4.47 4.47 0 004 0v0a4.472 4.472 0 014 0v0a4.47 4.47 0 004 0v0a4.472 4.472 0 014 0l.211.106a4 4 0 003.578 0v0a4 4 0 014.189.377L46 25.5m-32 5l.022.017a4 4 0 004.19.377v0a4 4 0 013.577 0L22 31a4.47 4.47 0 004 0v0a4.472 4.472 0 014 0v0a4.47 4.47 0 004 0v0a4.472 4.472 0 014 0l.211.106a4 4 0 003.578 0v0a4 4 0 014.189.377L46 31.5m-32 5l.022.017a4 4 0 004.19.377v0a4 4 0 013.577 0l.422.212a4 4 0 003.578 0v0a4 4 0 014.189.377L30 37.5" stroke="#46403C" stroke-linecap="round"/><circle cx="17" cy="50" r="4.5" stroke="#46403C"/></svg>