<svg width="41" height="41" fill="none" xmlns="http://www.w3.org/2000/svg"><path fill-rule="evenodd" clip-rule="evenodd" d="M18.361.074a.499.499 0 01.687.166l1.893 3.068a24.946 24.946 0 012.61 5.752l.415 1.35a18.08 18.08 0 01.687 7.401 17.745 17.745 0 01-5.92 11.329l-.614.539 2.595-.332a.5.5 0 01.048-.031c5.18-2.942 8.436-8.392 8.59-14.38l.04-1.564A20.122 20.122 0 0025.497.956l-.117-.16a.5.5 0 01.104-.699.5.5 0 01.698.11l.117.16a21.132 21.132 0 014.093 13.039l-.04 1.563a18.138 18.138 0 01-.923 5.267c-.442.228-.809.635-.98 1.22l-.72 2.45c-.346.57-.724 1.12-1.13 1.648l-2.593 1.766a2.018 2.018 0 00-.88 1.65l-.112.082.111-.016c.006.337.093.673.26.973a20.25 20.25 0 01-.447.062l-5.833.745a24.924 24.924 0 00-15.467 8.16l-.763.859a.5.5 0 11-.748-.665l.764-.859a25.93 25.93 0 012.51-2.463.51.51 0 01.028-.045l.372-.532a15.442 15.442 0 002.753-9.852l-.025-.383a18.611 18.611 0 00-2.984-8.958l-.125-.19a.5.5 0 01.838-.547l.124.19a19.611 19.611 0 013.145 9.44l.025.383a16.441 16.441 0 01-1.869 8.75 25.915 25.915 0 013.01-1.763l.454-.953a22.483 22.483 0 002.11-7.826l.022-.274c.073-.893.082-1.79.027-2.685l-.04-.662a16.744 16.744 0 00-3.99-9.852.5.5 0 11.76-.65 17.746 17.746 0 014.227 10.442l.041.662c.058.942.049 1.887-.029 2.828l-.022.274a23.483 23.483 0 01-2.14 8.04 25.95 25.95 0 012.486-.91l.929-1.318a19.303 19.303 0 002.575-5.14 19.61 19.61 0 00.958-6.057 20.25 20.25 0 00-3.655-11.595l-1.388-1.977a.5.5 0 01.119-.697.5.5 0 01.695.125l1.388 1.976a21.263 21.263 0 013.839 12.177c0 2.157-.34 4.32-1.007 6.367a20.303 20.303 0 01-2.708 5.404l-.22.313a25.93 25.93 0 012.209-.438.497.497 0 01.054-.055l1.69-1.48a16.751 16.751 0 005.587-10.694c.27-2.344.05-4.725-.648-6.987l-.416-1.35a23.936 23.936 0 00-2.503-5.517L18.203.764a.501.501 0 01.158-.69zm15.335 25.199a16.668 16.668 0 005.315-11.322l.147-2.697a.5.5 0 10-.999-.054l-.147 2.697a15.668 15.668 0 01-4.893 10.547c.12.322.319.608.577.829zm-1.126-2.679a19.208 19.208 0 001.424-2.896 19.56 19.56 0 00.364-13.186L33.62 4.25a.502.502 0 00-.629-.326.498.498 0 00-.316.632l.738 2.263a18.545 18.545 0 01-.344 12.502 18.37 18.37 0 01-.897 1.947c.024.061.045.124.065.19l.333 1.137z" fill="#46403C"/><path fill-rule="evenodd" clip-rule="evenodd" d="M27.363 26.234L24.52 28.17a1.012 1.012 0 000 1.664l2.842 1.936a3 3 0 011.183 1.635l.859 2.924c.279.95 1.595.95 1.874 0l.858-2.924a2.995 2.995 0 011.184-1.635l2.842-1.936a1.012 1.012 0 000-1.664l-2.842-1.936a2.995 2.995 0 01-1.184-1.635l-.858-2.924c-.279-.95-1.595-.95-1.874 0l-.859 2.924a2.995 2.995 0 01-1.183 1.635zm4.853-4.846c-.558-1.9-3.19-1.9-3.748 0l-.859 2.924c-.13.446-.41.831-.789 1.09l-2.842 1.936c-1.162.792-1.162 2.537 0 3.328l2.842 1.936c.38.259.658.644.789 1.09l.858 2.925c.558 1.9 3.191 1.9 3.75 0l.858-2.925a2 2 0 01.788-1.09l2.842-1.936c1.162-.791 1.162-2.536 0-3.328l-2.842-1.936a1.997 1.997 0 01-.788-1.09l-.859-2.924z" fill="#46403C"/></svg>