<svg width="39" height="39" fill="none" xmlns="http://www.w3.org/2000/svg"><path fill-rule="evenodd" clip-rule="evenodd" d="M21.3 3a2 2 0 11-4 0 2 2 0 014 0zm-1.886 2.998a3.001 3.001 0 01-3.06-2.427 15.912 15.912 0 00-6.087 2.521 3.017 3.017 0 00-.71-.724 16.908 16.908 0 016.775-2.81 3 3 0 114.06 3.237l1.067 4.224a2.995 2.995 0 012.712 1.142l3.868-2.185a2.991 2.991 0 01-.24-1.176c0-.635.198-1.223.534-1.708a15.912 15.912 0 00-6.087-2.521 3.021 3.021 0 00.022-1.013 16.908 16.908 0 016.776 2.81 3 3 0 11-.465 4.448l-3.936 2.223a2.997 2.997 0 01.084 1.62l8.505 3.798a3 3 0 011.797-1.103 15.912 15.912 0 00-2.521-6.087c.28-.194.525-.435.724-.71a16.907 16.907 0 012.81 6.775 3 3 0 110 5.936 16.908 16.908 0 01-2.81 6.776 3.015 3.015 0 00-.724-.71 15.913 15.913 0 002.521-6.088 3.003 3.003 0 01-2.008-1.411l-7.085 2.848a3.014 3.014 0 01-.322 2.09l3.258 2.728a3 3 0 11.171 4.731 16.907 16.907 0 01-6.775 2.81 3.023 3.023 0 00-.022-1.013 15.912 15.912 0 006.087-2.521A2.986 2.986 0 0127.8 30.8c0-.56.154-1.085.421-1.534l-3.24-2.713a2.988 2.988 0 01-2.396.718l-1.986 5.624a3 3 0 11-4.267 3.147 16.906 16.906 0 01-6.776-2.81c.276-.2.517-.444.71-.724a15.913 15.913 0 006.088 2.521 3.001 3.001 0 013.286-2.41l1.994-5.648a3.013 3.013 0 01-1.119-.99l-9.774 4.225a3 3 0 11-5.373-1.162 16.908 16.908 0 01-2.81-6.776h.002a3 3 0 01-.002-5.936 16.908 16.908 0 012.81-6.776 3 3 0 115.337-1.004l8.507 2.93c.3-.512.75-.927 1.287-1.186l-1.085-4.298zm-.557 6.417l-8.563-2.948c-.175.261-.39.494-.636.688l2.084 4.317a2.997 2.997 0 013.151 1.26l4.007-1.959a3.007 3.007 0 01-.043-1.358zM10.38 29.27l9.72-4.2a3.003 3.003 0 01.138-1.943l-5.633-3.692a2.992 2.992 0 01-2.497.952l-2.768 7.84c.427.255.786.615 1.04 1.043zm4.774-10.677l5.627 3.69a3 3 0 011.482-.89L21.755 16a2.997 2.997 0 01-2.44-1.318l-4.012 1.96a3.005 3.005 0 01-.15 1.95zm-5.502.014a3.012 3.012 0 001.485 1.516l-2.732 7.739a3.012 3.012 0 00-2.313.472 15.912 15.912 0 01-2.521-6.087A3.02 3.02 0 013 22.3a3 3 0 003-3v-.026l3.652-.668zm13.092-2.758a3.008 3.008 0 001.602-1.261l8.41 3.756a2.998 2.998 0 00-.094 1.567l-7.087 2.85a3 3 0 00-2.317-1.45l-.514-5.461zM37.6 19.3a2 2 0 11-4 0 2 2 0 014 0zM3 21.3a2 2 0 100-4 2 2 0 000 4zm5.775-10.662a2.996 2.996 0 01-.975.162 2.986 2.986 0 01-1.708-.533 15.911 15.911 0 00-2.521 6.087 3.005 3.005 0 012.254 1.934l3.584-.656a2.998 2.998 0 011.402-2.777l-2.036-4.217zM9.8 7.8a2 2 0 11-4 0 2 2 0 014 0zm12 7.2a2 2 0 100-4 2 2 0 000 4zm-7.4 2.4a2 2 0 11-4 0 2 2 0 014 0zm8.6 8.9a2 2 0 100-4 2 2 0 000 4zM9.8 30.8a2 2 0 11-4 0 2 2 0 014 0zm9.5 6.8a2 2 0 100-4 2 2 0 000 4zm13.5-6.8a2 2 0 11-4 0 2 2 0 014 0zm-2-21a2 2 0 100-4 2 2 0 000 4z" fill="#46403C"/></svg>