<svg width="40" height="40" fill="none" xmlns="http://www.w3.org/2000/svg"><path d="M18.187 2.12a2.872 2.872 0 013.626 0 3.873 3.873 0 003.058.818 2.872 2.872 0 013.14 1.813 3.873 3.873 0 002.238 2.239 2.872 2.872 0 011.813 3.14 3.873 3.873 0 00.819 3.057 2.872 2.872 0 010 3.626 3.873 3.873 0 00-.82 3.058 2.872 2.872 0 01-1.812 3.14 3.873 3.873 0 00-2.239 2.238 2.872 2.872 0 01-3.14 1.813 3.873 3.873 0 00-3.057.819 2.872 2.872 0 01-3.626 0 3.873 3.873 0 00-3.058-.82 2.872 2.872 0 01-3.14-1.812 3.873 3.873 0 00-2.238-2.239 2.872 2.872 0 01-1.813-3.14 3.873 3.873 0 00-.819-3.057 2.872 2.872 0 010-3.626 3.873 3.873 0 00.82-3.058A2.872 2.872 0 019.75 6.99a3.873 3.873 0 002.239-2.238 2.872 2.872 0 013.14-1.813 3.873 3.873 0 003.057-.819z" stroke="#46403C"/><path fill-rule="evenodd" clip-rule="evenodd" d="M20 33.332l7 5.205v1.015L20 34.5l-7 5.052v-1.015l7-5.205z" fill="#46403C"/><path fill-rule="evenodd" clip-rule="evenodd" d="M13 38V26.017c.296.249.635.442 1 .568V38h1.062l-1.339 1H13v-1zm13.276 1H27V26.017a3.159 3.159 0 01-1 .568V38h-1.063l1.339 1z" fill="#46403C"/><path d="M17.512 15.15c0-.55.121-1.027.363-1.43a2.6 2.6 0 01.968-.946c.404-.227.84-.341 1.31-.341.366 0 .696.048.99.143.293.095.557.227.791.396.242.161.451.345.627.55v-1.54a3.662 3.662 0 00-1.045-.605c-.374-.14-.843-.209-1.408-.209a4.34 4.34 0 00-1.584.286 3.67 3.67 0 00-1.265.825 3.92 3.92 0 00-.847 1.276 4.174 4.174 0 00-.297 1.595c0 .58.1 1.115.297 1.606.206.484.488.906.847 1.265.36.36.781.634 1.265.825a4.34 4.34 0 001.584.286c.565 0 1.034-.07 1.408-.209.374-.14.723-.341 1.045-.605v-1.54a3.322 3.322 0 01-.627.561c-.234.161-.498.29-.792.385a3.196 3.196 0 01-.99.143c-.47 0-.905-.11-1.309-.33a2.688 2.688 0 01-.968-.957c-.242-.41-.363-.887-.363-1.43z" fill="#46403C"/><circle cx="20" cy="15" r="8.5" stroke="#46403C"/></svg>