<svg width="40" height="40" fill="none" xmlns="http://www.w3.org/2000/svg"><path fill-rule="evenodd" clip-rule="evenodd" d="M14.344 13l2.4-8h6.512l2.4 8H14.344zM13.3 13L16 4h8l2.7 9h13.22L20 37 .083 13H13.3zM38 14L22.055 33.49 26.759 14H38zM20.595 35.273L25.73 14H14.27l5.135 21.273L20 36l.595-.727zm-2.65-1.784L13.243 14H2l15.946 19.49z" fill="#46403C"/><path fill-rule="evenodd" clip-rule="evenodd" d="M1.495 13l8.889-8h19.232l8.89 8H40l-.744-.67L30 4H10L.744 12.33 0 13h1.495z" fill="#46403C"/></svg>