<svg width="41" height="40" fill="none" xmlns="http://www.w3.org/2000/svg"><path fill-rule="evenodd" clip-rule="evenodd" d="M19.288 24.208L32.674 1.003l-1.772 15.044c-.176 1.497 1.304 2.643 2.71 2.099L39 16.058l-13.234 22.94 1.8-14.495a2 2 0 00-2.606-2.147l-5.672 1.852zM33.667 1.12c.127-1.08-1.316-1.558-1.86-.617L18.423 23.708c-.459.795.304 1.735 1.176 1.45l5.673-1.852a1 1 0 011.302 1.074l-1.799 14.494c-.134 1.082 1.314 1.568 1.859.623l13.233-22.94c.471-.817-.348-1.773-1.228-1.432l-5.388 2.088a1 1 0 01-1.355-1.05L33.667 1.12zM5.537 18.043a.502.502 0 000 1.005h12.085a.502.502 0 100-1.005H5.537zm2.518 10.542c0-.277.225-.502.502-.502h12.086a.502.502 0 010 1.004H8.557a.502.502 0 01-.502-.502zM.502 23.063a.502.502 0 000 1.005h12.086a.502.502 0 000-1.005H.502z" fill="#46403C"/></svg>