<svg width="40" height="40" fill="none" xmlns="http://www.w3.org/2000/svg"><path fill-rule="evenodd" clip-rule="evenodd" d="M5.378 9.014v-.001c0-.001 0-.002.002-.002h.003l14.618-5.01c.002-.002.004 0 .005.002 0 .001.001.002.003.002l14.603 5.007h.006c.002 0 .003 0 .003.002l.002.001v.008c.49 3.173.502 6.4.033 9.496-.469 3.1-1.41 6.009-2.768 8.559-1.358 2.55-3.108 4.693-5.148 6.305-2.04 1.611-4.332 2.66-6.744 3.088v-.001h-.001c-2.41-.43-4.7-1.48-6.74-3.09-2.04-1.613-3.788-3.755-5.146-6.305s-2.298-5.459-2.766-8.558a31.543 31.543 0 01.035-9.503zm28.418 1.352a.981.981 0 00-.66-.812L20.313 5.158a1 1 0 00-.649 0l-12.8 4.389a.981.981 0 00-.66.811 30.399 30.399 0 00.123 8.03c.453 2.994 1.36 5.79 2.657 8.228 1.299 2.438 2.959 4.464 4.875 5.979 1.82 1.437 3.839 2.39 5.955 2.822a.932.932 0 00.372 0c2.114-.432 4.132-1.384 5.95-2.82 1.917-1.513 3.578-3.54 4.877-5.978 1.299-2.439 2.205-5.234 2.659-8.23.395-2.613.437-5.327.124-8.023z" fill="#46403C"/><path fill-rule="evenodd" clip-rule="evenodd" d="M17.869 24.266a.026.026 0 00-.004.003.032.032 0 01-.046 0l-4.449-4.745a.502.502 0 01.733-.687l3.235 3.45a1 1 0 001.333.114l8.613-6.519a.501.501 0 01.605.8l-10.02 7.584z" fill="#46403C"/></svg>