<svg width="40" height="40" fill="none" xmlns="http://www.w3.org/2000/svg"><path d="M28.5 20c0 4.067-.99 7.725-2.565 10.35-1.58 2.634-3.694 4.15-5.935 4.15-2.24 0-4.355-1.516-5.935-4.15C12.49 27.724 11.5 24.066 11.5 20c0-4.067.99-7.725 2.565-10.35C15.645 7.017 17.759 5.5 20 5.5c2.24 0 4.355 1.516 5.935 4.15C27.51 12.276 28.5 15.934 28.5 20z" stroke="#46403C"/><path d="M20 26.5c-4.086 0-7.76-.774-10.395-2.003C6.93 23.248 5.5 21.623 5.5 20c0-1.623 1.43-3.248 4.105-4.497C12.239 14.273 15.915 13.5 20 13.5c4.086 0 7.76.774 10.395 2.003C33.07 16.752 34.5 18.377 34.5 20c0 1.623-1.43 3.248-4.105 4.497C27.761 25.727 24.085 26.5 20 26.5z" stroke="#46403C"/><circle cx="20" cy="20" r="18.5" stroke="#46403C"/><circle cx="20" cy="20" r="1.5" stroke="#46403C"/><path d="M21 0a1 1 0 011 1v1h-4V1a1 1 0 011-1h2zm-2 40a1 1 0 01-1-1v-1h4v1a1 1 0 01-1 1h-2zm21-19a1 1 0 01-1 1h-1v-4h1a1 1 0 011 1v2zM0 19a1 1 0 011-1h1v4H1a1 1 0 01-1-1v-2z" fill="#46403C"/><path fill="#46403C" d="M1 19.5h5v1H1zm33 0h5v1h-5zM20.5 1v5h-1V1zm0 33v5h-1v-5z"/></svg>