<svg width="40" height="40" fill="none" xmlns="http://www.w3.org/2000/svg"><path d="M16.4 2.16a4.734 4.734 0 017.2 0 5.74 5.74 0 005.265 1.938c2.859-.459 5.469 1.746 5.52 4.689a5.844 5.844 0 002.797 4.898c2.487 1.51 3.081 4.903 1.251 7.188a5.88 5.88 0 00-.97 5.568c.947 2.783-.76 5.761-3.604 6.32a5.789 5.789 0 00-4.29 3.637c-1.04 2.744-4.235 3.915-6.767 2.495a5.721 5.721 0 00-5.604 0c-2.532 1.42-5.727.25-6.768-2.495a5.789 5.789 0 00-4.289-3.638c-2.843-.558-4.551-3.536-3.603-6.32a5.88 5.88 0 00-.971-5.567c-1.83-2.285-1.236-5.677 1.251-7.188a5.844 5.844 0 002.798-4.898c.05-2.943 2.66-5.148 5.519-4.69a5.74 5.74 0 005.264-1.936z" stroke="#46403C"/><path d="M18.589 10.832c.467-1.343 2.367-1.343 2.834 0l1.18 3.396a2.5 2.5 0 002.31 1.68l3.596.072c1.422.03 2.009 1.836.876 2.695l-2.866 2.173a2.5 2.5 0 00-.882 2.716l1.04 3.442c.413 1.361-1.124 2.478-2.292 1.665l-2.951-2.054a2.5 2.5 0 00-2.856 0l-2.952 2.054c-1.167.813-2.704-.304-2.292-1.665l1.041-3.442a2.5 2.5 0 00-.882-2.716l-2.866-2.173c-1.133-.859-.546-2.666.876-2.695l3.595-.073a2.5 2.5 0 002.31-1.679l1.181-3.396z" stroke="#46403C"/></svg>