<svg width="46" height="60" fill="none" xmlns="http://www.w3.org/2000/svg"><mask id="path-1-inside-1_129_755" fill="#fff"><path fill-rule="evenodd" clip-rule="evenodd" d="M38.515 1.464A5 5 0 0034.979 0H5a5 5 0 00-5 5v50a5 5 0 005 5h36a5 5 0 005-5V11.02a5 5 0 00-1.465-3.535l-6.02-6.02z"/></mask><path d="M44.535 7.485l-.707.707.707-.707zm-6.02-6.02l.707-.708-.707.707zM5 1h29.98v-2H5v2zM1 5a4 4 0 014-4v-2a6 6 0 00-6 6h2zm0 50V5h-2v50h2zm4 4a4 4 0 01-4-4h-2a6 6 0 006 6v-2zm36 0H5v2h36v-2zm4-4a4 4 0 01-4 4v2a6 6 0 006-6h-2zm0-43.98V55h2V11.02h-2zm.243-4.242L39.222.758l-1.414 1.414 6.02 6.02 1.415-1.414zM47 11.021a6 6 0 00-1.757-4.243l-1.415 1.414A4 4 0 0145 11.021h2zM34.98 1a4 4 0 012.828 1.172L39.222.757A6 6 0 0034.979-1v2z" fill="#46403C" mask="url(#path-1-inside-1_129_755)"/><path fill-rule="evenodd" clip-rule="evenodd" d="M45 11h-9a1 1 0 01-1-1V1h-1v9a2 2 0 002 2h9v-1z" fill="#46403C"/><path d="M7 19l.022.017a4 4 0 004.19.377v0a4 4 0 013.577 0L15 19.5a4.47 4.47 0 004 0v0a4.472 4.472 0 014 0v0a4.47 4.47 0 004 0v0a4.472 4.472 0 014 0l.211.106a4 4 0 003.578 0v0a4 4 0 014.189.377L39 20M7 24.5l.022.017a4 4 0 004.19.377v0a4 4 0 013.577 0L15 25a4.47 4.47 0 004 0v0a4.472 4.472 0 014 0v0a4.47 4.47 0 004 0v0a4.472 4.472 0 014 0l.211.106a4 4 0 003.578 0v0a4 4 0 014.189.377L39 25.5m-32 5l.022.017a4 4 0 004.19.377v0a4 4 0 013.577 0L15 31a4.47 4.47 0 004 0v0a4.472 4.472 0 014 0v0a4.47 4.47 0 004 0v0a4.472 4.472 0 014 0l.211.106a4 4 0 003.578 0v0a4 4 0 014.189.377L39 31.5m-32 5l.022.017a4 4 0 004.19.377v0a4 4 0 013.577 0l.422.212a4 4 0 003.578 0v0a4 4 0 014.189.377L23 37.5" stroke="#46403C" stroke-linecap="round"/><circle cx="10" cy="50" r="4.5" stroke="#46403C"/></svg>