<svg width="60" height="60" fill="none" xmlns="http://www.w3.org/2000/svg"><path fill-rule="evenodd" clip-rule="evenodd" d="M19 1h21a2 2 0 012 2v3H17V3a2 2 0 012-2zm-3 5V3a3 3 0 013-3h21a3 3 0 013 3v5.672c0 1.175-.87 2.146-2 2.305V22a3 3 0 01-3 3H21a3 3 0 01-3-3V10.977c-1.13-.16-2-1.13-2-2.305V6zm16 18h4v-9h-4v9zm5 0h1a2 2 0 002-2V10.901a2.331 2.331 0 01-1.19-.832c-.424.565-1.1.931-1.862.931a2.324 2.324 0 01-1.862-.93c-.424.564-1.1.93-1.862.93a2.324 2.324 0 01-1.862-.93c-.425.564-1.1.93-1.862.93a2.324 2.324 0 01-1.862-.93c-.425.564-1.1.93-1.862.93a2.324 2.324 0 01-1.862-.93c-.425.564-1.1.93-1.862.93a2.324 2.324 0 01-1.862-.93 2.34 2.34 0 01-1.19.831V22a2 2 0 002 2h10v-9a1 1 0 011-1h4a1 1 0 011 1v9zm5-15.328a1.328 1.328 0 01-2.655 0V7H42v1.672zm-22.345 0a1.328 1.328 0 01-2.655 0V7h2.655v1.672zM38.275 7h-2.654v1.672a1.328 1.328 0 002.655 0V7zm-3.723 0h-2.655v1.672a1.328 1.328 0 102.655 0V7zm-3.724 0h-2.656v1.672a1.328 1.328 0 002.656 0V7zm-3.725 0h-2.655v1.672a1.328 1.328 0 002.655 0V7zM23.38 7h-2.655v1.672a1.328 1.328 0 002.655 0V7zM27 15h-4v4h4v-4zm-4-1a1 1 0 00-1 1v4a1 1 0 001 1h4a1 1 0 001-1v-4a1 1 0 00-1-1h-4zM3 39h17a2 2 0 012 2v2.16H1V41a2 2 0 012-2zm-3 2a3 3 0 013-3h17a3 3 0 013 3v4.697c0 1-.74 1.828-1.704 1.964V57a3 3 0 01-3 3H4.704a3 3 0 01-3-3v-9.34A1.983 1.983 0 010 45.697V41zm16.888 18h-3.11v-7.68h3.11V59zm1 0v-7.68a1 1 0 00-1-1h-3.11a1 1 0 00-1 1V59H4.703a2 2 0 01-2-2v-9.455c.346-.135.645-.365.865-.658a1.98 1.98 0 001.586.793 1.98 1.98 0 001.586-.793 1.98 1.98 0 001.586.793 1.98 1.98 0 001.587-.793 1.98 1.98 0 001.586.793 1.98 1.98 0 001.586-.793 1.98 1.98 0 001.586.793 1.98 1.98 0 001.586-.793 1.98 1.98 0 001.587.793 1.98 1.98 0 001.586-.793c.22.292.519.522.865.658V57a2 2 0 01-2 2h-.408zM1 44.28h1.966v1.417a.983.983 0 11-1.966 0V44.28zm3.172 0h1.966v1.417a.983.983 0 11-1.966 0V44.28zm5.138 0H7.345v1.417a.983.983 0 101.965 0V44.28zm1.207 0h1.966v1.417a.983.983 0 11-1.966 0V44.28zm5.138 0H13.69v1.417a.983.983 0 101.965 0V44.28zm1.207 0h1.965v1.417a.983.983 0 11-1.965 0V44.28zm5.138 0h-1.965v1.417a.983.983 0 101.965 0V44.28zM9.222 51.32H6.11v3.28h3.11v-3.28zm-3.111-1a1 1 0 00-1 1v3.28a1 1 0 001 1h3.11a1 1 0 001-1v-3.28a1 1 0 00-1-1h-3.11zM57 39H40a2 2 0 00-2 2v2.16h21V41a2 2 0 00-2-2zm-17-1a3 3 0 00-3 3v4.697c0 1 .74 1.828 1.704 1.963V57a3 3 0 003 3h13.592a3 3 0 003-3v-9.34A1.983 1.983 0 0060 45.698V41a3 3 0 00-3-3H40zm10.777 21h3.111v-7.68h-3.11V59zm4.111-7.68V59h.408a2 2 0 002-2v-9.455a1.988 1.988 0 01-.865-.658 1.98 1.98 0 01-1.586.793 1.98 1.98 0 01-1.587-.793 1.98 1.98 0 01-1.586.793 1.98 1.98 0 01-1.586-.793 1.98 1.98 0 01-1.586.793 1.98 1.98 0 01-1.586-.793 1.98 1.98 0 01-1.587.793 1.98 1.98 0 01-1.586-.793 1.98 1.98 0 01-1.586.793 1.98 1.98 0 01-1.586-.793c-.22.293-.519.523-.865.658V57a2 2 0 002 2h8.073v-7.68a1 1 0 011-1h3.111a1 1 0 011 1zm-14.922-7.04H38v1.417a.983.983 0 101.965 0V44.28zm3.172 0h-1.966v1.417a.983.983 0 101.966 0V44.28zm1.207 0h1.965v1.417a.983.983 0 11-1.965 0V44.28zm5.138 0h-1.966v1.417a.983.983 0 101.966 0V44.28zm1.207 0h1.965v1.417a.983.983 0 11-1.965 0V44.28zm5.137 0h-1.965v1.417a.983.983 0 101.965 0V44.28zm1.208 0H59v1.417a.983.983 0 11-1.965 0V44.28zM43.11 51.32h3.11v3.28h-3.11v-3.28zm-1 0a1 1 0 011-1h3.11a1 1 0 011 1v3.28a1 1 0 01-1 1h-3.11a1 1 0 01-1-1v-3.28zM29.5 27a.5.5 0 01.5.5V30a1 1 0 001 1h17.5a.5.5 0 01.5.5v4a.5.5 0 01-1 0V33a1 1 0 00-1-1H13a1 1 0 00-1 1v2.5a.5.5 0 01-1 0v-4a.5.5 0 01.5-.5H28a1 1 0 001-1v-2.5a.5.5 0 01.5-.5z" fill="#46403C"/></svg>