<svg width="100" height="33" fill="none" xmlns="http://www.w3.org/2000/svg"><path d="M27.768 23.17c-1.666 0-3.016-.594-4.052-1.784a.752.752 0 01-.183-.574.706.706 0 01.274-.51.56.56 0 01.488-.19.762.762 0 01.518.286c.71.829 1.696 1.243 2.955 1.243 1.218 0 2.183-.414 2.894-1.243.731-.828 1.138-2.008 1.219-3.537h-2.959a.749.749 0 01-.518-.191.828.828 0 01-.183-.542c0-.234.061-.415.183-.542a.69.69 0 01.518-.223h2.928c-.142-1.445-.568-2.55-1.28-3.314-.69-.765-1.624-1.148-2.802-1.148-1.26 0-2.244.425-2.955 1.275a.813.813 0 01-.518.255.71.71 0 01-.488-.191.819.819 0 01-.274-.542.658.658 0 01.183-.542c1.036-1.21 2.386-1.816 4.052-1.816 1.706 0 3.057.616 4.052 1.848 1.015 1.232 1.523 2.921 1.523 5.067 0 2.125-.508 3.814-1.523 5.067-.995 1.233-2.346 1.849-4.052 1.849zm41.821.032c-1.727 0-3.087-.616-4.082-1.848-.996-1.254-1.493-2.943-1.493-5.067 0-2.146.497-3.835 1.493-5.067.995-1.233 2.355-1.849 4.082-1.849 1.503 0 2.762.542 3.778 1.625 1.036 1.084 1.594 2.55 1.675 4.398v.096a.717.717 0 01-.213.51c-.122.148-.294.223-.518.223h-8.835c0 1.636.325 2.953.975 3.951.67.999 1.716 1.498 3.138 1.498.731 0 1.412-.16 2.041-.478.65-.34 1.148-.775 1.493-1.306a.768.768 0 01.457-.319.638.638 0 01.548.127.7.7 0 01.305.478c.04.213 0 .404-.122.574-.487.744-1.158 1.339-2.01 1.785a5.651 5.651 0 01-2.712.669zm-4.022-8.477h7.891c-.203-1.211-.65-2.146-1.34-2.804-.67-.659-1.513-.988-2.529-.988-1.097 0-1.99.329-2.681.988-.67.658-1.117 1.593-1.34 2.804zm11.471 8.409a.885.885 0 01-.274-.51.658.658 0 01.182-.541l4.6-6.464-3.838-5.162a.767.767 0 01-.152-.542c.04-.213.132-.393.274-.542a.761.761 0 01.518-.127.661.661 0 01.487.286l3.626 4.876 3.625-4.876a.642.642 0 01.457-.286.734.734 0 01.549.159.706.706 0 01.274.51.766.766 0 01-.153.542l-3.838 5.162 4.63 6.463c.102.15.143.33.122.542a.706.706 0 01-.274.51.562.562 0 01-.518.128.697.697 0 01-.487-.255L82.46 17.11l-4.387 5.896a.697.697 0 01-.488.255.638.638 0 01-.548-.128z" fill="#46403C"/><path fill-rule="evenodd" clip-rule="evenodd" d="M17.79 11.226c-.356-1.075-1.876-1.075-2.232 0l-3.682 11.096a.73.73 0 001.386.46l3.04-9.162.372-1.121.373 1.121 3.04 9.162a.73.73 0 101.386-.46l-3.682-11.096z" fill="#46403C"/><mask id="mask0_156_6796" style="mask-type:alpha" maskUnits="userSpaceOnUse" x="35" y="9" width="28" height="18"><rect x="60.719" y="21.797" width="1.431" height="4.235" rx=".715" fill="url(#paint0_radial_156_6796)"/><rect x="35.209" y="21.797" width="26.939" height="1.495" rx=".747" fill="url(#paint1_radial_156_6796)"/><rect x="35.209" y="16.316" width="1.431" height="6.975" rx=".715" fill="url(#paint2_radial_156_6796)"/><rect x="43.076" y="14.074" width="1.431" height="9.218" rx=".715" fill="url(#paint3_radial_156_6796)"/><rect x="50.943" y="11.832" width="1.431" height="11.46" rx=".715" fill="url(#paint4_radial_156_6796)"/><rect x="59.287" y="9.34" width="1.431" height="13.951" rx=".715" fill="url(#paint5_radial_156_6796)"/></mask><g mask="url(#mask0_156_6796)"><path fill="#46403C" d="M35.209 9.34h26.939v16.691H35.209z"/></g><rect x=".5" y="-.5" width="99" height="32" rx="16" transform="matrix(1 0 0 -1 0 32)" stroke="#46403C"/><defs><radialGradient id="paint0_radial_156_6796" cx="0" cy="0" r="1" gradientUnits="userSpaceOnUse" gradientTransform="matrix(0 -3.59285 1.216 0 61.423 25.778)"><stop stop-color="#8AFF8F"/><stop offset="1" stop-color="#AB40FF"/></radialGradient><radialGradient id="paint1_radial_156_6796" cx="0" cy="0" r="1" gradientUnits="userSpaceOnUse" gradientTransform="matrix(0 -1.26806 22.8952 0 48.474 23.202)"><stop stop-color="#8AFF8F"/><stop offset="1" stop-color="#AB40FF"/></radialGradient><radialGradient id="paint2_radial_156_6796" cx="0" cy="0" r="1" gradientUnits="userSpaceOnUse" gradientTransform="matrix(0 -5.91763 1.216 0 35.913 22.873)"><stop stop-color="#8AFF8F"/><stop offset="1" stop-color="#AB40FF"/></radialGradient><radialGradient id="paint3_radial_156_6796" cx="0" cy="0" r="1" gradientUnits="userSpaceOnUse" gradientTransform="matrix(0 -7.81972 1.216 0 43.78 22.738)"><stop stop-color="#8AFF8F"/><stop offset="1" stop-color="#AB40FF"/></radialGradient><radialGradient id="paint4_radial_156_6796" cx="0" cy="0" r="1" gradientUnits="userSpaceOnUse" gradientTransform="matrix(0 -9.72182 1.216 0 51.648 22.603)"><stop stop-color="#8AFF8F"/><stop offset="1" stop-color="#AB40FF"/></radialGradient><radialGradient id="paint5_radial_156_6796" cx="0" cy="0" r="1" gradientUnits="userSpaceOnUse" gradientTransform="matrix(0 -11.8353 1.216 0 59.992 22.453)"><stop stop-color="#8AFF8F"/><stop offset="1" stop-color="#AB40FF"/></radialGradient></defs></svg>