<svg width="269" height="57" fill="none" xmlns="http://www.w3.org/2000/svg"><g clip-path="url(#clip0_331_1077)"><path d="M56.1 47.3c-5.9 0-10.6-2-14.3-6.1-.5-.6-.7-1.2-.6-1.9.1-.7.4-1.3 1-1.7.5-.5 1.1-.7 1.7-.6.7.1 1.3.4 1.8 1 2.5 2.8 6 4.2 10.4 4.2 4.3 0 7.7-1.4 10.2-4.2 2.6-2.8 4-6.8 4.3-12H60.2c-.7 0-1.3-.2-1.8-.6-.4-.5-.6-1.1-.6-1.8 0-.8.2-1.4.6-1.8.5-.5 1.1-.8 1.8-.8h10.3c-.5-4.9-2-8.7-4.5-11.3-2.4-2.6-5.7-3.9-9.9-3.9-4.4 0-7.9 1.4-10.4 4.3-.5.5-1.1.8-1.8.9-.6 0-1.2-.2-1.7-.6-.6-.5-.9-1.1-1-1.8-.1-.7.1-1.3.6-1.8C45.5 2.7 50.2.6 56.1.6c6 0 10.8 2.1 14.3 6.3 3.6 4.2 5.4 9.9 5.4 17.2 0 7.2-1.8 12.9-5.4 17.2-3.5 3.9-8.2 6-14.3 6zm147.498.1c-6.1 0-10.9-2.1-14.4-6.3-3.5-4.3-5.3-10-5.3-17.2 0-7.3 1.8-13 5.3-17.2 3.5-4.2 8.3-6.3 14.4-6.3 5.3 0 9.7 1.8 13.3 5.5 3.7 3.7 5.6 8.7 5.9 14.9v.3c0 .6-.3 1.2-.8 1.7-.4.5-1 .8-1.8.8h-31.2c0 5.6 1.1 10 3.4 13.4 2.4 3.4 6.1 5.1 11.1 5.1 2.6 0 5-.5 7.2-1.6 2.3-1.2 4-2.6 5.3-4.4.4-.6 1-.9 1.6-1.1.7-.1 1.4 0 1.9.4.6.4.9.9 1.1 1.6.1.7 0 1.4-.4 1.9-1.7 2.5-4.1 4.5-7.1 6.1-2.9 1.6-6.1 2.4-9.5 2.4zm-14.2-28.8h27.8c-.7-4.1-2.3-7.3-4.7-9.5-2.4-2.2-5.3-3.4-8.9-3.4-3.9 0-7 1.1-9.5 3.4-2.3 2.2-3.9 5.4-4.7 9.5zM229.9 47.2c-.5-.4-.8-1-1-1.7-.1-.7.1-1.3.6-1.8l16.2-21.9-13.5-17.5c-.4-.6-.6-1.2-.5-1.8.1-.7.5-1.3 1-1.8.6-.4 1.2-.5 1.8-.4.7.1 1.3.4 1.7 1L249 17.5 261.8 1c.4-.6 1-.9 1.6-1 .7-.1 1.4.1 1.9.5.6.4.9 1 1 1.7.1.6-.1 1.3-.5 1.8l-13.5 17.5 16.3 21.9c.4.5.5 1.1.4 1.8-.1.7-.4 1.3-1 1.7-.5.4-1.1.6-1.8.4-.7-.1-1.3-.4-1.7-.9l-15.5-20-15.5 20c-.4.5-1 .8-1.7.9-.7.4-1.3.3-1.9-.1z" fill="#000"/><path fill-rule="evenodd" clip-rule="evenodd" d="M19.402 2.2c-.8-2.3-4-2.3-4.8 0L.102 44.3c-.6 1.6.7 3.3 2.4 3.3h.1c1.1 0 2-.7 2.4-1.7l11.2-32.6.8-2.3.8 2.3 11.3 32.7c.4 1 1.3 1.7 2.4 1.7h.1c1.7 0 3-1.7 2.4-3.3l-14.6-42.2z" fill="#000"/><path d="M177.398 45.1v9.3c0 1.4-1.1 2.5-2.5 2.5-.7 0-1.3-.3-1.8-.7-.5-.4-.7-1.1-.7-1.8v-6.8h-87.5c-.7 0-1.3-.3-1.8-.7-.5-.4-.7-1.1-.7-1.8V26.5c0-1.4 1.1-2.5 2.5-2.5s2.5 1.1 2.5 2.5v16.1h22.7V18.9c0-1.4 1.1-2.5 2.5-2.5s2.5 1.1 2.5 2.5v23.7h22.7V11.3c0-1.4 1.1-2.5 2.5-2.5s2.5 1.1 2.5 2.5v31.3h24.4V2.9c0-1.4 1.1-2.5 2.5-2.5s2.5 1.1 2.5 2.5v39.8h2.5c1.5-.1 2.7 1.1 2.7 2.4z" fill="url(#paint0_linear_331_1077)"/></g><defs><linearGradient id="paint0_linear_331_1077" x1="152.218" y1="14.916" x2="89.742" y2="86.47" gradientUnits="userSpaceOnUse"><stop stop-color="#AF9B8E"/><stop offset=".396" stop-color="#807269"/><stop offset=".795" stop-color="#564E49"/><stop offset="1" stop-color="#46403C"/></linearGradient><clipPath id="clip0_331_1077"><path fill="#fff" d="M0 0h269v57H0z"/></clipPath></defs></svg>