<svg width="269" height="57" fill="none" xmlns="http://www.w3.org/2000/svg"><path d="M56.143 47.29c-5.873 0-10.635-2.02-14.288-6.058-.501-.577-.716-1.226-.644-1.948a2.374 2.374 0 01.967-1.73c.5-.505 1.074-.722 1.718-.65.716.072 1.325.397 1.827.974 2.506 2.813 5.98 4.22 10.42 4.22 4.297 0 7.699-1.407 10.206-4.22 2.578-2.813 4.01-6.816 4.297-12.008H60.213c-.716 0-1.325-.217-1.826-.65-.43-.504-.645-1.117-.645-1.838 0-.794.215-1.407.645-1.84a2.478 2.478 0 011.826-.757h10.325c-.501-4.904-2.005-8.654-4.512-11.25-2.435-2.597-5.73-3.895-9.883-3.895-4.44 0-7.914 1.442-10.42 4.327a2.909 2.909 0 01-1.827.865 2.556 2.556 0 01-1.718-.649c-.573-.505-.896-1.118-.967-1.839-.072-.721.143-1.334.644-1.839C45.508 2.395 50.27.34 56.143.34c6.016 0 10.779 2.091 14.288 6.274 3.58 4.183 5.371 9.917 5.371 17.201 0 7.212-1.79 12.946-5.371 17.201-3.51 4.183-8.272 6.275-14.288 6.275zm147.459.108c-6.087 0-10.885-2.092-14.395-6.275-3.509-4.255-5.264-9.988-5.264-17.2 0-7.285 1.755-13.019 5.264-17.202 3.51-4.183 8.308-6.274 14.395-6.274 5.3 0 9.741 1.839 13.321 5.517 3.653 3.678 5.622 8.655 5.909 14.93v.324c0 .649-.251 1.226-.752 1.73-.43.505-1.039.758-1.826.758H189.1c0 5.553 1.146 10.025 3.438 13.415 2.363 3.39 6.051 5.084 11.064 5.084 2.579 0 4.978-.54 7.198-1.623 2.292-1.154 4.047-2.632 5.264-4.435.43-.577.967-.938 1.611-1.082.717-.144 1.361 0 1.934.433.573.36.931.901 1.074 1.623.144.72 0 1.37-.429 1.947-1.719 2.524-4.083 4.544-7.09 6.058-2.937 1.515-6.124 2.272-9.562 2.272zm-14.18-28.777h27.824c-.716-4.11-2.292-7.284-4.727-9.52-2.363-2.235-5.336-3.353-8.917-3.353-3.867 0-7.018 1.118-9.453 3.353-2.363 2.236-3.939 5.41-4.727 9.52zm40.457 28.544c-.502-.432-.824-1.01-.967-1.73-.072-.722.143-1.335.644-1.84l16.222-21.94-13.536-17.526c-.43-.577-.609-1.19-.537-1.84a3.525 3.525 0 01.967-1.838 2.765 2.765 0 011.826-.433 2.35 2.35 0 011.719.974l12.784 16.552L261.785.992c.429-.577.966-.902 1.611-.974a2.66 2.66 0 011.934.541 2.37 2.37 0 01.966 1.73c.072.65-.107 1.263-.537 1.84l-13.535 17.526 16.328 21.94c.359.505.502 1.118.43 1.84a2.372 2.372 0 01-.967 1.73c-.501.433-1.11.577-1.826.433-.716-.072-1.289-.36-1.719-.865l-15.469-20.014-15.47 20.014c-.429.505-1.002.793-1.719.865-.716.144-1.36 0-1.933-.433z" fill="#000"/><path fill-rule="evenodd" clip-rule="evenodd" d="M19.418 2.248c-.782-2.271-3.994-2.271-4.777 0L.14 44.318a2.526 2.526 0 002.388 3.35h.083a2.526 2.526 0 002.388-1.703l11.235-32.593v-.003l.796-2.306.796 2.31L29.06 45.964l.002.006a2.526 2.526 0 002.387 1.697h.082a2.526 2.526 0 002.389-3.35L19.418 2.249z" fill="#000"/><mask id="mask0_129_1028" style="mask-type:alpha" maskUnits="userSpaceOnUse" x="82" y="0" width="96" height="57"><rect x="172.33" y="42.623" width="5.044" height="14.377" rx="2.522" fill="url(#paint0_radial_129_1028)"/><rect x="82.385" y="42.623" width="94.989" height="5.074" rx="2.526" fill="url(#paint1_radial_129_1028)"/><rect x="82.385" y="24.018" width="5.044" height="23.679" rx="2.522" fill="url(#paint2_radial_129_1028)"/><rect x="110.125" y="16.407" width="5.044" height="31.291" rx="2.522" fill="url(#paint3_radial_129_1028)"/><rect x="137.865" y="8.795" width="5.044" height="38.902" rx="2.522" fill="url(#paint4_radial_129_1028)"/><rect x="167.285" y=".339" width="5.044" height="47.359" rx="2.522" fill="url(#paint5_radial_129_1028)"/></mask><g mask="url(#mask0_129_1028)"><path fill="url(#paint6_linear_129_1028)" d="M82.385.339h94.989V57H82.385z"/></g><defs><radialGradient id="paint0_radial_129_1028" cx="0" cy="0" r="1" gradientUnits="userSpaceOnUse" gradientTransform="matrix(0 -12.1965 4.28661 0 174.814 56.136)"><stop stop-color="#8AFF8F"/><stop offset="1" stop-color="#AB40FF"/></radialGradient><radialGradient id="paint1_radial_129_1028" cx="0" cy="0" r="1" gradientUnits="userSpaceOnUse" gradientTransform="matrix(0 -4.30466 80.7311 0 129.158 47.393)"><stop stop-color="#8AFF8F"/><stop offset="1" stop-color="#AB40FF"/></radialGradient><radialGradient id="paint2_radial_129_1028" cx="0" cy="0" r="1" gradientUnits="userSpaceOnUse" gradientTransform="matrix(0 -20.0884 4.28661 0 84.868 46.275)"><stop stop-color="#8AFF8F"/><stop offset="1" stop-color="#AB40FF"/></radialGradient><radialGradient id="paint3_radial_129_1028" cx="0" cy="0" r="1" gradientUnits="userSpaceOnUse" gradientTransform="matrix(0 -26.5454 4.28661 0 112.609 45.818)"><stop stop-color="#8AFF8F"/><stop offset="1" stop-color="#AB40FF"/></radialGradient><radialGradient id="paint4_radial_129_1028" cx="0" cy="0" r="1" gradientUnits="userSpaceOnUse" gradientTransform="matrix(0 -33.0024 4.28661 0 140.349 45.36)"><stop stop-color="#8AFF8F"/><stop offset="1" stop-color="#AB40FF"/></radialGradient><radialGradient id="paint5_radial_129_1028" cx="0" cy="0" r="1" gradientUnits="userSpaceOnUse" gradientTransform="matrix(0 -40.1768 4.28661 0 169.769 44.853)"><stop stop-color="#8AFF8F"/><stop offset="1" stop-color="#AB40FF"/></radialGradient><linearGradient id="paint6_linear_129_1028" x1="154.752" y1="3.675" x2="77.149" y2="20.27" gradientUnits="userSpaceOnUse"><stop stop-color="#AF9B8E"/><stop offset="1" stop-color="#46403C"/></linearGradient></defs></svg>