<svg width="100" height="33" fill="none" xmlns="http://www.w3.org/2000/svg"><path d="M27.768 23.172c-1.666 0-3.016-.595-4.052-1.785a.752.752 0 01-.183-.574.706.706 0 01.274-.51.56.56 0 01.488-.19.762.762 0 01.518.286c.71.829 1.696 1.243 2.955 1.243 1.218 0 2.183-.414 2.894-1.243.731-.828 1.138-2.008 1.219-3.537h-2.959a.748.748 0 01-.518-.191.827.827 0 01-.183-.542c0-.234.061-.415.183-.542a.69.69 0 01.518-.223h2.928c-.142-1.445-.568-2.55-1.28-3.314-.69-.765-1.624-1.148-2.802-1.148-1.26 0-2.244.425-2.955 1.275a.813.813 0 01-.518.255.71.71 0 01-.488-.191.819.819 0 01-.274-.542.658.658 0 01.183-.542c1.036-1.21 2.386-1.816 4.052-1.816 1.706 0 3.057.616 4.052 1.848 1.015 1.232 1.523 2.921 1.523 5.067 0 2.125-.508 3.814-1.523 5.067-.995 1.233-2.346 1.849-4.052 1.849zm41.821.031c-1.727 0-3.087-.616-4.082-1.848-.996-1.253-1.493-2.942-1.493-5.067 0-2.146.497-3.835 1.493-5.067.995-1.232 2.355-1.848 4.082-1.848 1.503 0 2.762.541 3.778 1.625 1.036 1.083 1.594 2.55 1.675 4.398v.095a.717.717 0 01-.213.51c-.122.149-.294.223-.518.223h-8.835c0 1.636.325 2.953.975 3.952.67.998 1.716 1.498 3.138 1.498.731 0 1.412-.16 2.041-.478.65-.34 1.148-.776 1.493-1.307a.768.768 0 01.457-.319.637.637 0 01.548.128.7.7 0 01.305.478c.04.212 0 .404-.122.574-.487.743-1.158 1.338-2.01 1.784a5.652 5.652 0 01-2.712.67zm-4.022-8.477h7.891c-.203-1.21-.65-2.145-1.34-2.804-.67-.659-1.513-.988-2.529-.988-1.097 0-1.99.33-2.681.988-.67.659-1.117 1.593-1.34 2.804zm11.471 8.409a.885.885 0 01-.274-.51.658.658 0 01.182-.542l4.6-6.463-3.838-5.163a.767.767 0 01-.152-.542c.04-.212.132-.393.274-.541a.761.761 0 01.518-.128.661.661 0 01.487.287l3.626 4.876 3.625-4.876a.642.642 0 01.457-.287.734.734 0 01.549.16.706.706 0 01.274.51.766.766 0 01-.153.541l-3.838 5.163 4.63 6.463c.102.149.143.33.122.542a.706.706 0 01-.274.51.561.561 0 01-.518.127.697.697 0 01-.487-.255l-4.387-5.896-4.387 5.896a.697.697 0 01-.488.255.638.638 0 01-.548-.127z" fill="#46403C"/><path fill-rule="evenodd" clip-rule="evenodd" d="M17.801 9.93c-.334-1.119-1.92-1.119-2.254 0L11.84 22.334a.737.737 0 001.413.422l3.045-10.19v-.001l.376-1.257.375 1.257 3.046 10.191a.737.737 0 001.413-.422L17.8 9.93z" fill="#46403C"/><rect x="60.719" y="21.798" width="1.431" height="4.235" rx=".715" fill="#46403C"/><rect x="35.209" y="21.798" width="26.939" height="1.495" rx=".747" fill="#46403C"/><rect x="35.209" y="16.317" width="1.431" height="6.975" rx=".715" fill="#46403C"/><rect x="43.076" y="14.075" width="1.431" height="9.218" rx=".715" fill="#46403C"/><rect x="50.943" y="11.832" width="1.431" height="11.46" rx=".715" fill="#46403C"/><rect x="59.287" y="9.341" width="1.431" height="13.951" rx=".715" fill="#46403C"/><rect x=".5" y="-.5" width="99" height="32" rx="16" transform="matrix(1 0 0 -1 0 32)" stroke="#46403C"/></svg>