<svg width="40" height="40" viewBox="0 0 40 40" fill="none" xmlns="http://www.w3.org/2000/svg">
<path fill-rule="evenodd" clip-rule="evenodd" d="M14.3443 13L16.7443 5H23.2562L25.6562 13H14.3443ZM13.3003 13L16.0003 4H24.0003L26.7003 13H27.0003L27.0003 13L39.9192 13L20.0006 37L0.0820312 13L13.0003 13L13.0003 13H13.3003ZM38.0003 14L22.0546 33.4892L26.7589 14L38.0003 14ZM20.5954 35.2726L25.7302 14L14.2704 14L19.4051 35.2727L20.0003 36L20.5954 35.2726ZM17.9459 33.4892L13.2416 14L2.00025 14L17.9459 33.4892Z" fill="#46403C"/>
<path fill-rule="evenodd" clip-rule="evenodd" d="M1.49485 13L10.3837 5H29.6163L38.5052 13H40L39.2557 12.3301L30 4H10L0.744323 12.3301L0 13H1.49485Z" fill="#46403C"/>
</svg>
