<svg width="14" height="13" viewBox="0 0 14 13" fill="none" xmlns="http://www.w3.org/2000/svg">
<path d="M1.07461 2.3258L1.10614 2.29427L1.13009 2.25665L1.96685 0.941731C2.43108 0.212234 3.5025 0.231797 3.93979 0.977755L4.93372 2.67328C5.05722 2.88395 5.00544 3.15353 4.81267 3.30346L4.07866 3.87436L3.81579 4.07881L3.9647 4.37669C4.46061 5.36866 5.21725 6.41163 6.18211 7.37649C7.14696 8.34134 8.18994 9.09798 9.1819 9.59389L9.47978 9.74281L9.68424 9.47993L10.2551 8.74592C10.4051 8.55316 10.6746 8.50138 10.8853 8.62487L12.5808 9.6188C13.3268 10.0561 13.3464 11.1275 12.6169 11.5917L11.3019 12.4285L11.2643 12.4524L11.2328 12.484C11.1568 12.56 10.9702 12.6385 10.5558 12.564C10.1558 12.4922 9.63622 12.2913 9.02676 11.9589C7.81272 11.2967 6.32501 10.1584 4.86262 8.69597C3.40023 7.23358 2.26191 5.74587 1.59971 4.53183C1.26728 3.92237 1.06643 3.40283 0.99455 3.00277C0.920092 2.58839 0.998584 2.40183 1.07461 2.3258Z" stroke="#725C4D" stroke-width="0.8125"/>
</svg>
