<svg width="20" height="12" viewBox="0 0 20 12" fill="none" xmlns="http://www.w3.org/2000/svg">
<path fill-rule="evenodd" clip-rule="evenodd" d="M19.4139 0.91631C19.5513 0.458367 19.4139 0.121826 18.7603 0.121826H16.5988C16.0491 0.121826 15.7958 0.412486 15.6586 0.733221C15.6586 0.733221 14.5591 3.41238 13.002 5.15282C12.4984 5.65665 12.2694 5.81712 11.9944 5.81712C11.8572 5.81712 11.6583 5.65665 11.6583 5.19893V0.91631C11.6583 0.366823 11.4987 0.121826 11.0407 0.121826H7.64369C7.30034 0.121826 7.09354 0.376921 7.09354 0.618845C7.09354 1.13979 7.87222 1.2601 7.95257 2.72569V5.90867C7.95257 6.60656 7.82656 6.73345 7.5517 6.73345C6.81913 6.73345 5.03653 4.042 3.97927 0.962411C3.77203 0.36375 3.56436 0.122046 3.01202 0.122046H0.850512C0.232752 0.121826 0.109375 0.412486 0.109375 0.733001C0.109375 1.30554 0.841951 4.14517 3.52133 7.9007C5.30744 10.4653 7.82392 11.8558 10.1141 11.8558C11.4879 11.8558 11.658 11.5469 11.658 11.015V9.07673C11.658 8.45896 11.7882 8.33581 12.2233 8.33581C12.5438 8.33581 13.0933 8.49584 14.3758 9.73246C15.8414 11.1981 16.0829 11.8556 16.9075 11.8556H19.069C19.6863 11.8556 19.9952 11.5467 19.8171 10.9375C19.622 10.33 18.9223 9.44883 17.9939 8.40452C17.4901 7.80915 16.7343 7.1679 16.5053 6.84717C16.1845 6.43511 16.2763 6.25202 16.5053 5.8854C16.5053 5.8854 19.1392 2.17576 19.4139 0.91631Z" fill="#46403C"/>
</svg>
