<svg width="16" height="16" viewBox="0 0 16 16" fill="none" xmlns="http://www.w3.org/2000/svg">
<path d="M0.188906 7.92006C0.188379 9.30048 0.548937 10.648 1.23458 11.8358L0.123047 15.8941L4.27658 14.8051C5.42095 15.4291 6.70934 15.758 8.02055 15.7586H8.02389C12.3418 15.7586 15.8569 12.2445 15.8589 7.92621C15.8596 5.83329 15.0452 3.86541 13.5661 2.38489C12.0866 0.904547 10.1196 0.0887687 8.02389 0.0878906C3.70509 0.0878906 0.190487 3.60127 0.188731 7.91989M2.66206 11.6312L2.50698 11.385C1.85506 10.3484 1.51101 9.15049 1.51136 7.92059C1.51294 4.33117 4.43411 1.4107 8.02617 1.4107C9.76574 1.4114 11.4005 2.08949 12.6302 3.31992C13.8597 4.55035 14.5364 6.18612 14.5359 7.92551C14.5343 11.5151 11.613 14.4356 8.02371 14.4356H8.02108C6.85229 14.4349 5.70617 14.1212 4.70668 13.5279L4.46871 13.3869L2.00381 14.0332L2.66206 11.6312ZM8.02389 15.7586C8.02371 15.7586 8.02371 15.7586 8.02389 15.7586V15.7586Z" fill="white"/>
<path d="M6.06582 4.64532C5.91917 4.31936 5.7648 4.31268 5.62535 4.30706C5.51119 4.30214 5.38053 4.3025 5.25021 4.3025C5.11955 4.3025 4.90757 4.3515 4.72826 4.54732C4.54877 4.74331 4.04297 5.2168 4.04297 6.17993C4.04297 7.14323 4.74459 8.07387 4.84224 8.20471C4.94024 8.3352 6.19666 10.3749 8.18631 11.1596C9.84 11.8117 10.1767 11.6821 10.5355 11.6494C10.8945 11.6168 11.6937 11.1759 11.8569 10.7188C12.02 10.2616 12.02 9.86981 11.9712 9.78814C11.9222 9.70648 11.7917 9.65748 11.5959 9.55965C11.4001 9.46166 10.4376 8.98817 10.2582 8.92284C10.0787 8.85751 9.94818 8.82502 9.81752 9.02101C9.68703 9.21683 9.31207 9.65765 9.19791 9.78814C9.08376 9.91898 8.96943 9.93532 8.77378 9.83732C8.57796 9.73914 7.94746 9.53261 7.19948 8.86576C6.61746 8.34679 6.22458 7.70611 6.11043 7.51011C5.99627 7.31429 6.09831 7.20839 6.19631 7.11074C6.28429 7.0231 6.39213 6.88225 6.49013 6.76792C6.58777 6.65359 6.62044 6.57192 6.6856 6.44143C6.75093 6.31077 6.71826 6.19644 6.66926 6.09844C6.62027 6.00044 6.23986 5.03239 6.06582 4.64532Z" fill="white"/>
</svg>
