<svg width="20" height="14" viewBox="0 0 20 14" fill="none" xmlns="http://www.w3.org/2000/svg">
<path d="M19.4543 2.23323C19.227 1.38321 18.5575 0.713639 17.7074 0.486425C16.1668 0.0734862 9.98828 0.0734863 9.98828 0.0734863C9.98828 0.0734863 3.80979 0.0734862 2.26912 0.486425C1.4191 0.713639 0.749528 1.38321 0.522313 2.23323C0.109375 3.77391 0.109375 6.98872 0.109375 6.98872C0.109375 6.98872 0.109375 10.2035 0.522313 11.7442C0.749528 12.5942 1.4191 13.2638 2.26912 13.491C3.80979 13.904 9.98828 13.904 9.98828 13.904C9.98828 13.904 16.1668 13.904 17.7074 13.491C18.5575 13.2638 19.227 12.5942 19.4543 11.7442C19.8672 10.2035 19.8672 6.98872 19.8672 6.98872C19.8672 6.98872 19.8672 3.77391 19.4543 2.23323ZM8.0125 9.95239V4.02505L13.1456 6.98872L8.0125 9.95239Z" fill="#46403C"/>
</svg>
